<svg width="89" height="32" viewBox="0 0 89 32" fill="none" xmlns="http://www.w3.org/2000/svg">
<path d="M32.2141 21L37.6631 6.216H39.5427L44.9706 21H43.0698L38.5923 8.4336L34.0727 21H32.2141ZM34.7063 17.1984L35.2131 15.7622H41.9082L42.4151 17.1984H34.7063ZM47.2312 21V6.216H52.0044C53.1589 6.216 54.1023 6.41312 54.8344 6.80736C55.5666 7.18752 56.1087 7.70144 56.4607 8.34912C56.8127 8.9968 56.9887 9.72896 56.9887 10.5456C56.9887 11.3341 56.8056 12.0592 56.4396 12.721C56.0876 13.3827 55.5384 13.9107 54.7922 14.305C54.046 14.6992 53.0885 14.8963 51.9199 14.8963H49.0053V21H47.2312ZM55.0456 21L51.7932 14.3894H53.7784L57.1365 21H55.0456ZM49.0053 13.5024H51.8776C53.004 13.5024 53.8277 13.2278 54.3487 12.6787C54.8837 12.1296 55.1512 11.4256 55.1512 10.5667C55.1512 9.69376 54.8908 9.00384 54.3698 8.49696C53.8629 7.976 53.0252 7.71552 51.8565 7.71552H49.0053V13.5024ZM65.1126 21.2534C64.0989 21.2534 63.1766 21.0493 62.3459 20.641C61.5293 20.2326 60.8745 19.6131 60.3817 18.7824C59.8889 17.9376 59.6425 16.8605 59.6425 15.551V6.216H61.4166V15.5722C61.4166 16.5296 61.5715 17.311 61.8813 17.9165C62.2051 18.5219 62.6486 18.9654 63.2118 19.247C63.775 19.5286 64.4227 19.6694 65.1549 19.6694C65.9011 19.6694 66.5488 19.5286 67.0979 19.247C67.647 18.9654 68.0765 18.5219 68.3862 17.9165C68.696 17.311 68.8509 16.5296 68.8509 15.5722V6.216H70.6249V15.551C70.6249 16.8605 70.3785 17.9376 69.8857 18.7824C69.3929 19.6131 68.7312 20.2326 67.9005 20.641C67.0697 21.0493 66.1405 21.2534 65.1126 21.2534ZM77.115 21V7.67328H72.701V6.216H83.3032V7.67328H78.8891V21H77.115ZM85.5937 21V6.216H87.3678V21H85.5937Z" fill="#111318"/>
<path d="M12.8125 26.5304C13.5386 25.7093 14.3952 24.1845 14.5844 23.04C14.5958 16.0812 14.5766 9.1232 14.5937 2.16517C14.1779 2.15574 13.3509 2.13131 12.8609 2.15592C12.8645 3.16457 12.8111 20.9082 12.8125 26.5304Z" fill="#111318"/>
<path d="M17.8773 21.0468C18.0163 19.3806 17.9884 17.6954 17.9595 16.0208C17.8976 12.4302 17.8356 8.83969 17.7737 5.24913C17.7536 4.07924 17.8146 2.72969 18.739 2.01235C18.684 2.05633 15.2177 1.93306 15.1684 2.0573C15.1309 2.15193 15.4501 2.45042 15.51 2.55101C15.6234 2.7413 15.7035 2.94977 15.7617 3.16298C15.8842 3.61145 15.9112 4.08148 15.9178 4.54425C15.9188 4.61754 15.9192 4.69084 15.9191 4.76413C15.9186 10.1127 15.918 15.4613 15.9175 20.8098C15.9174 21.7806 15.9169 22.7561 15.7656 23.715C15.5296 25.2109 14.9218 26.6468 14.012 27.8575C12.7666 29.5148 10.9064 30.7525 8.85218 31.0317C6.90331 31.2965 4.86908 30.6754 3.33862 29.4401C1.80817 28.2048 0.569289 25.3073 0 23.7639C0.149517 26.9592 2.25857 29.9824 5.20571 31.2259C8.15284 32.4694 11.7901 31.8709 14.1833 29.7486C16.0187 28.121 17.0751 25.759 17.5586 23.354C17.712 22.591 17.8127 21.8209 17.8773 21.0468Z" fill="#111318"/>
<path d="M46.1239 29.009C45.289 30.8469 43.1995 31.8496 41.1852 31.9816C37.4225 32.2279 33.9084 29.9668 31.3543 27.193C28.8002 24.4191 26.918 21.0914 24.4539 18.2374C23.567 17.2103 22.5175 16.1974 21.1831 15.9504C20.9692 15.9107 20.7435 15.8928 20.5384 15.9652C20.3236 16.041 20.155 16.2069 19.9938 16.3678C19.4516 16.9094 18.9094 17.4512 18.3672 17.9929V17.3399L19.2503 16.3929L19.3202 16.3179C19.4897 16.141 27.4288 7.68729 29.1599 5.95616C30.1681 4.88489 31.2466 3.62668 31.135 2.15979C32.2941 2.12689 33.2629 2.15573 34.4011 2.1416C29.374 5.95676 25.1714 10.7325 21.0058 15.4733C24.1403 15.7783 26.7916 17.9558 28.7591 20.415C30.7266 22.8742 32.221 25.6943 34.2926 28.0665C35.5216 29.4737 37.0007 30.7421 38.7847 31.2968C41.2928 32.0766 44.2222 31.2198 45.9364 29.2368C46.0006 29.1624 46.0632 29.0865 46.1239 29.009Z" fill="#111318"/>
<path d="M19.3199 16.3179L19.25 16.3929C19.2729 16.3676 19.2963 16.3426 19.3199 16.3179Z" fill="#111318"/>
</svg>
