<svg width="251" height="50" viewBox="0 0 251 50" fill="none" xmlns="http://www.w3.org/2000/svg">
<path d="M24.9851 24.8899C27.5529 20.5426 29.6832 15.2046 34.3268 13.2222C38.1512 11.5894 36.4078 6.51335 39.2385 10.5841C31.6283 4.85834 38.1471 10.2278 38.3389 10.5841C38.2259 8.81235 44.1866 11.5875 43.5506 9.93077C42.2923 6.65357 41.6847 6.01918 38.3389 4.95685C35.3494 4.0077 31.9983 4.5973 29.2725 6.14896C26.5468 7.70057 24.9574 10.3986 23.3623 13.0993C20.7945 17.4466 18.6642 22.7846 14.0206 24.767C10.1962 26.3997 5.08946 26.0232 2.25878 21.9525C2.0208 21.6102 1.66656 24.0075 1.47476 23.6512C1.58777 25.4229 1.1184 24.6078 1.75444 26.2646C3.01267 29.5418 6.66267 31.9699 10.0084 33.0323C12.998 33.9815 16.349 33.3919 19.0748 31.8402C21.8006 30.2886 23.3899 27.5905 24.9851 24.8899Z" fill="#B9B173"/>
<path d="M58.8766 13.5834C60.0445 15.699 61.2998 18.161 60.6393 20.6389C60.165 21.3126 59.2655 21.508 58.5571 21.8609C57.6242 22.3688 56.5926 21.4694 56.1086 20.7353C55.5544 18.8112 54.8646 16.8907 53.6249 15.2926C50.8925 11.5336 45.7203 9.80527 41.2689 11.0808C36.6125 12.3179 32.9558 16.7129 32.7096 21.5384C32.5974 22.9097 33.0627 24.2928 33.9065 25.369C34.2669 25.8719 35.0379 26.174 35.5842 25.7949C36.3325 25.4315 36.3691 24.5213 36.458 23.8044C36.6339 21.7373 38.0805 19.9149 39.8903 18.9918C41.8482 18.118 44.2769 18.2822 46.0365 19.5433C48.2512 21.0095 49.6162 23.5271 49.995 26.1264C50.6339 29.9985 49.4219 34.0059 47.167 37.1669C44.9557 40.5249 41.349 42.8386 37.4695 43.7789C32.582 45.0366 27.1813 44.1229 22.9844 41.3166C19.5577 39.0493 16.9072 35.536 15.8965 31.5327C15.7794 30.7195 15.5514 29.7997 15.9114 29.0278C16.8704 28.3338 18.1818 27.4231 19.3869 28.073C20.4983 28.4651 20.6542 29.7586 21.1042 30.6924C22.2102 33.5957 24.354 36.1309 27.1539 37.5234C30.8818 39.4554 35.619 39.5682 39.2915 37.4387C41.7288 36.0706 43.6718 33.7294 44.3319 30.9878C44.7992 29.1278 44.9805 27.0413 43.9707 25.3168C43.6263 24.7556 43.2538 23.7472 42.4139 23.9855C42.0089 24.2627 41.9734 24.7852 41.9212 25.2293C41.8193 27.3569 40.3803 29.2207 38.6096 30.2983C36.4539 31.7954 33.3946 31.7347 31.2436 30.2651C29.6162 29.2315 28.4506 27.5432 27.9787 25.6831C26.5497 21.1539 27.723 16.0458 30.5826 12.3229C33.3411 8.46879 37.7986 5.90191 42.515 5.44105C48.9289 4.664 55.6159 8.01597 58.8766 13.5834Z" fill="#B9B173"/>
<path d="M74.378 33.788C73.146 33.788 72.074 33.564 71.162 33.116C70.25 32.668 69.546 32.044 69.05 31.244C68.554 30.444 68.306 29.516 68.306 28.46H70.418C70.418 29.116 70.57 29.724 70.874 30.284C71.178 30.828 71.618 31.268 72.194 31.604C72.786 31.924 73.514 32.084 74.378 32.084C75.13 32.084 75.77 31.964 76.298 31.724C76.842 31.468 77.25 31.124 77.522 30.692C77.81 30.26 77.954 29.772 77.954 29.228C77.954 28.556 77.81 28.02 77.522 27.62C77.234 27.204 76.842 26.868 76.346 26.612C75.866 26.356 75.306 26.132 74.666 25.94C74.042 25.748 73.386 25.532 72.698 25.292C71.402 24.844 70.442 24.292 69.818 23.636C69.194 22.964 68.882 22.092 68.882 21.02C68.882 20.108 69.09 19.308 69.506 18.62C69.938 17.932 70.546 17.396 71.33 17.012C72.13 16.612 73.074 16.412 74.162 16.412C75.234 16.412 76.162 16.612 76.946 17.012C77.746 17.412 78.37 17.964 78.818 18.668C79.266 19.356 79.49 20.156 79.49 21.068H77.378C77.378 20.604 77.258 20.148 77.018 19.7C76.778 19.252 76.41 18.884 75.914 18.596C75.434 18.292 74.826 18.14 74.09 18.14C73.482 18.124 72.938 18.228 72.458 18.452C71.994 18.66 71.626 18.964 71.354 19.364C71.098 19.764 70.97 20.252 70.97 20.828C70.97 21.372 71.082 21.812 71.306 22.148C71.546 22.484 71.882 22.772 72.314 23.012C72.762 23.236 73.282 23.444 73.874 23.636C74.466 23.828 75.122 24.044 75.842 24.284C76.658 24.556 77.378 24.892 78.002 25.292C78.642 25.676 79.138 26.172 79.49 26.78C79.858 27.388 80.042 28.164 80.042 29.108C80.042 29.908 79.826 30.668 79.394 31.388C78.978 32.092 78.354 32.668 77.522 33.116C76.69 33.564 75.642 33.788 74.378 33.788ZM88.205 33.788C87.085 33.788 86.077 33.532 85.181 33.02C84.285 32.508 83.573 31.788 83.045 30.86C82.533 29.916 82.277 28.812 82.277 27.548C82.277 26.284 82.541 25.188 83.069 24.26C83.597 23.316 84.309 22.588 85.205 22.076C86.117 21.564 87.133 21.308 88.253 21.308C89.373 21.308 90.381 21.564 91.277 22.076C92.173 22.588 92.877 23.316 93.389 24.26C93.917 25.188 94.181 26.284 94.181 27.548C94.181 28.812 93.917 29.916 93.389 30.86C92.861 31.788 92.141 32.508 91.229 33.02C90.333 33.532 89.325 33.788 88.205 33.788ZM88.205 32.06C88.893 32.06 89.533 31.892 90.125 31.556C90.717 31.22 91.197 30.716 91.565 30.044C91.933 29.372 92.117 28.54 92.117 27.548C92.117 26.54 91.933 25.708 91.565 25.052C91.213 24.38 90.741 23.876 90.149 23.54C89.557 23.204 88.925 23.036 88.253 23.036C87.581 23.036 86.941 23.204 86.333 23.54C85.741 23.876 85.261 24.38 84.893 25.052C84.525 25.708 84.341 26.54 84.341 27.548C84.341 28.54 84.525 29.372 84.893 30.044C85.261 30.716 85.733 31.22 86.309 31.556C86.901 31.892 87.533 32.06 88.205 32.06ZM97.2001 33.5V21.596H99.2161V33.5H97.2001ZM98.2081 18.956C97.8081 18.956 97.4721 18.828 97.2001 18.572C96.9441 18.3 96.8161 17.964 96.8161 17.564C96.8161 17.164 96.9441 16.844 97.2001 16.604C97.4721 16.348 97.8081 16.22 98.2081 16.22C98.5921 16.22 98.9201 16.348 99.1921 16.604C99.4641 16.844 99.6001 17.164 99.6001 17.564C99.6001 17.964 99.4641 18.3 99.1921 18.572C98.9201 18.828 98.5921 18.956 98.2081 18.956ZM108.078 33.788C106.942 33.788 105.934 33.532 105.054 33.02C104.174 32.492 103.478 31.764 102.966 30.836C102.47 29.892 102.222 28.796 102.222 27.548C102.222 26.284 102.47 25.188 102.966 24.26C103.462 23.332 104.15 22.612 105.03 22.1C105.926 21.572 106.958 21.308 108.126 21.308C109.294 21.308 110.294 21.572 111.126 22.1C111.958 22.612 112.598 23.292 113.046 24.14C113.494 24.972 113.718 25.884 113.718 26.876C113.718 27.036 113.718 27.212 113.718 27.404C113.718 27.58 113.71 27.78 113.694 28.004H103.734V26.444H111.726C111.678 25.372 111.31 24.532 110.622 23.924C109.95 23.316 109.102 23.012 108.078 23.012C107.39 23.012 106.75 23.164 106.158 23.468C105.566 23.772 105.086 24.22 104.718 24.812C104.366 25.388 104.19 26.116 104.19 26.996V27.668C104.19 28.644 104.374 29.46 104.742 30.116C105.11 30.772 105.59 31.268 106.182 31.604C106.774 31.924 107.406 32.084 108.078 32.084C108.91 32.084 109.606 31.892 110.166 31.508C110.726 31.124 111.134 30.604 111.39 29.948H113.382C113.174 30.684 112.83 31.34 112.35 31.916C111.87 32.492 111.27 32.948 110.55 33.284C109.846 33.62 109.022 33.788 108.078 33.788ZM135.75 33.5L126.438 24.092C125.702 23.356 125.174 22.692 124.854 22.1C124.534 21.492 124.374 20.828 124.374 20.108C124.374 19.388 124.542 18.748 124.878 18.188C125.23 17.628 125.726 17.196 126.366 16.892C127.006 16.572 127.766 16.412 128.646 16.412C129.51 16.412 130.262 16.58 130.902 16.916C131.542 17.236 132.038 17.684 132.39 18.26C132.742 18.82 132.902 19.476 132.87 20.228H130.878C130.894 19.508 130.67 18.964 130.206 18.596C129.758 18.228 129.238 18.044 128.646 18.044C127.942 18.044 127.382 18.236 126.966 18.62C126.566 18.988 126.366 19.476 126.366 20.084C126.366 20.58 126.51 21.076 126.798 21.572C127.086 22.052 127.502 22.588 128.046 23.18L138.294 33.5H135.75ZM127.83 33.788C126.678 33.788 125.662 33.58 124.782 33.164C123.918 32.732 123.238 32.132 122.742 31.364C122.262 30.596 122.022 29.7 122.022 28.676C122.022 27.86 122.19 27.116 122.526 26.444C122.862 25.756 123.358 25.148 124.014 24.62C124.686 24.092 125.502 23.668 126.462 23.348L127.278 23.06L128.334 24.38L127.374 24.716C126.238 25.116 125.398 25.644 124.854 26.3C124.31 26.94 124.038 27.708 124.038 28.604C124.038 29.26 124.198 29.852 124.518 30.38C124.838 30.908 125.286 31.324 125.862 31.628C126.438 31.916 127.102 32.06 127.854 32.06C128.798 32.06 129.646 31.86 130.398 31.46C131.15 31.044 131.91 30.364 132.678 29.42C133.014 29.004 133.358 28.524 133.71 27.98C134.078 27.42 134.462 26.796 134.862 26.108L135.606 24.812H137.742L136.686 26.684C136.238 27.5 135.79 28.244 135.342 28.916C134.91 29.572 134.478 30.156 134.046 30.668C133.118 31.788 132.158 32.588 131.166 33.068C130.174 33.548 129.062 33.788 127.83 33.788ZM152.144 33.788C150.912 33.788 149.84 33.564 148.928 33.116C148.016 32.668 147.312 32.044 146.816 31.244C146.32 30.444 146.072 29.516 146.072 28.46H148.184C148.184 29.116 148.336 29.724 148.64 30.284C148.944 30.828 149.384 31.268 149.96 31.604C150.552 31.924 151.28 32.084 152.144 32.084C152.896 32.084 153.536 31.964 154.064 31.724C154.608 31.468 155.016 31.124 155.288 30.692C155.576 30.26 155.72 29.772 155.72 29.228C155.72 28.556 155.576 28.02 155.288 27.62C155 27.204 154.608 26.868 154.112 26.612C153.632 26.356 153.072 26.132 152.432 25.94C151.808 25.748 151.152 25.532 150.464 25.292C149.168 24.844 148.208 24.292 147.584 23.636C146.96 22.964 146.648 22.092 146.648 21.02C146.648 20.108 146.856 19.308 147.272 18.62C147.704 17.932 148.312 17.396 149.096 17.012C149.896 16.612 150.84 16.412 151.928 16.412C153 16.412 153.928 16.612 154.712 17.012C155.512 17.412 156.136 17.964 156.584 18.668C157.032 19.356 157.256 20.156 157.256 21.068H155.144C155.144 20.604 155.024 20.148 154.784 19.7C154.544 19.252 154.176 18.884 153.68 18.596C153.2 18.292 152.592 18.14 151.856 18.14C151.248 18.124 150.704 18.228 150.224 18.452C149.76 18.66 149.392 18.964 149.12 19.364C148.864 19.764 148.736 20.252 148.736 20.828C148.736 21.372 148.848 21.812 149.072 22.148C149.312 22.484 149.648 22.772 150.08 23.012C150.528 23.236 151.048 23.444 151.64 23.636C152.232 23.828 152.888 24.044 153.608 24.284C154.424 24.556 155.144 24.892 155.768 25.292C156.408 25.676 156.904 26.172 157.256 26.78C157.624 27.388 157.808 28.164 157.808 29.108C157.808 29.908 157.592 30.668 157.16 31.388C156.744 32.092 156.12 32.668 155.288 33.116C154.456 33.564 153.408 33.788 152.144 33.788ZM166.019 33.788C164.883 33.788 163.859 33.532 162.947 33.02C162.051 32.492 161.339 31.764 160.811 30.836C160.299 29.892 160.043 28.796 160.043 27.548C160.043 26.3 160.299 25.212 160.811 24.284C161.339 23.34 162.051 22.612 162.947 22.1C163.859 21.572 164.883 21.308 166.019 21.308C167.443 21.308 168.635 21.676 169.595 22.412C170.555 23.148 171.163 24.132 171.419 25.364H169.355C169.195 24.628 168.803 24.06 168.179 23.66C167.555 23.244 166.827 23.036 165.995 23.036C165.323 23.036 164.691 23.204 164.099 23.54C163.507 23.876 163.027 24.38 162.659 25.052C162.291 25.724 162.107 26.556 162.107 27.548C162.107 28.284 162.211 28.94 162.419 29.516C162.643 30.076 162.931 30.548 163.283 30.932C163.651 31.316 164.067 31.604 164.531 31.796C165.011 31.988 165.499 32.084 165.995 32.084C166.555 32.084 167.067 31.996 167.531 31.82C167.995 31.628 168.387 31.356 168.707 31.004C169.027 30.652 169.243 30.228 169.355 29.732H171.419C171.163 30.932 170.555 31.908 169.595 32.66C168.635 33.412 167.443 33.788 166.019 33.788ZM178.194 33.788C177.202 33.788 176.378 33.62 175.722 33.284C175.066 32.948 174.578 32.5 174.258 31.94C173.938 31.38 173.778 30.772 173.778 30.116C173.778 29.3 173.986 28.612 174.402 28.052C174.834 27.492 175.434 27.068 176.202 26.78C176.986 26.476 177.906 26.324 178.962 26.324H182.178C182.178 25.588 182.058 24.98 181.818 24.5C181.578 24.004 181.234 23.636 180.786 23.396C180.338 23.14 179.802 23.012 179.178 23.012C178.394 23.012 177.714 23.212 177.138 23.612C176.562 23.996 176.21 24.564 176.082 25.316H174.018C174.114 24.452 174.41 23.724 174.906 23.132C175.402 22.54 176.026 22.092 176.778 21.788C177.546 21.468 178.346 21.308 179.178 21.308C180.282 21.308 181.202 21.516 181.938 21.932C182.69 22.332 183.25 22.9 183.618 23.636C184.002 24.356 184.194 25.204 184.194 26.18V33.5H182.394L182.274 31.364C182.114 31.7 181.906 32.02 181.65 32.324C181.41 32.612 181.122 32.868 180.786 33.092C180.466 33.3 180.09 33.468 179.658 33.596C179.226 33.724 178.738 33.788 178.194 33.788ZM178.506 32.084C179.082 32.084 179.594 31.972 180.042 31.748C180.506 31.508 180.898 31.188 181.218 30.788C181.538 30.388 181.778 29.94 181.938 29.444C182.098 28.948 182.178 28.436 182.178 27.908V27.884H179.13C178.346 27.884 177.714 27.98 177.234 28.172C176.754 28.348 176.41 28.596 176.202 28.916C175.994 29.236 175.89 29.604 175.89 30.02C175.89 30.436 175.986 30.804 176.178 31.124C176.386 31.428 176.682 31.668 177.066 31.844C177.466 32.004 177.946 32.084 178.506 32.084ZM187.242 33.5V16.22H189.258V33.5H187.242ZM197.914 33.788C196.778 33.788 195.77 33.532 194.89 33.02C194.01 32.492 193.314 31.764 192.802 30.836C192.306 29.892 192.058 28.796 192.058 27.548C192.058 26.284 192.306 25.188 192.802 24.26C193.298 23.332 193.986 22.612 194.866 22.1C195.762 21.572 196.794 21.308 197.962 21.308C199.13 21.308 200.13 21.572 200.962 22.1C201.794 22.612 202.434 23.292 202.882 24.14C203.33 24.972 203.554 25.884 203.554 26.876C203.554 27.036 203.554 27.212 203.554 27.404C203.554 27.58 203.546 27.78 203.53 28.004H193.57V26.444H201.562C201.514 25.372 201.146 24.532 200.458 23.924C199.786 23.316 198.938 23.012 197.914 23.012C197.226 23.012 196.586 23.164 195.994 23.468C195.402 23.772 194.922 24.22 194.554 24.812C194.202 25.388 194.026 26.116 194.026 26.996V27.668C194.026 28.644 194.21 29.46 194.578 30.116C194.946 30.772 195.426 31.268 196.018 31.604C196.61 31.924 197.242 32.084 197.914 32.084C198.746 32.084 199.442 31.892 200.002 31.508C200.562 31.124 200.97 30.604 201.226 29.948H203.218C203.01 30.684 202.666 31.34 202.186 31.916C201.706 32.492 201.106 32.948 200.386 33.284C199.682 33.62 198.858 33.788 197.914 33.788ZM212.698 33.5V16.7H214.714V31.892H222.538V33.5H212.698ZM226.571 33.5V18.356H221.555V16.7H233.603V18.356H228.587V33.5H226.571ZM236.065 33.5V16.7H241.225C243.193 16.7 244.817 17.044 246.097 17.732C247.377 18.404 248.321 19.372 248.929 20.636C249.553 21.884 249.865 23.388 249.865 25.148C249.865 26.876 249.553 28.364 248.929 29.612C248.321 30.86 247.377 31.82 246.097 32.492C244.817 33.164 243.193 33.5 241.225 33.5H236.065ZM238.081 31.82H241.177C242.809 31.82 244.105 31.556 245.065 31.028C246.041 30.484 246.737 29.716 247.153 28.724C247.569 27.716 247.777 26.524 247.777 25.148C247.777 23.74 247.569 22.532 247.153 21.524C246.737 20.516 246.041 19.74 245.065 19.196C244.105 18.652 242.809 18.38 241.177 18.38H238.081V31.82Z" fill="#B9B173"/>
</svg>
