<svg width="942" height="372" viewBox="0 0 942 372" fill="none" xmlns="http://www.w3.org/2000/svg">
<path d="M150.074 348.64C115.834 348.64 93.4344 324.8 93.4344 291.84C93.4344 259.84 114.554 235.52 149.274 235.52C183.834 235.52 206.554 259.84 206.554 292.32C206.554 324.16 184.794 348.64 150.074 348.64ZM117.594 291.52C99.1944 312.96 130.234 346.08 150.074 346.08C166.874 346.08 151.834 307.2 182.874 299.2C209.434 292.32 170.554 238.24 147.994 238.24C127.514 238.24 134.074 272.32 117.594 291.52Z" fill="#F6F3E1"/>
<path d="M2.43125 319.2C0.19125 300.32 10.4313 294.72 21.9513 294.88C17.3113 302.56 18.2713 315.2 21.1512 322.72C23.5512 329.12 30.4313 339.68 39.7113 339.68C50.4313 339.68 58.1113 332 58.1113 322.72C58.1113 297.76 3.07125 295.84 3.07125 263.2C3.07125 244 22.1113 231.2 44.6713 231.2C61.4713 231.2 83.5513 238.24 83.5513 254.56C83.5513 261.6 77.4713 271.36 63.2313 276.16C66.1113 264 66.1113 258.24 64.6713 252.48C61.9513 241.12 55.2313 236.16 45.3113 236.16C35.8713 236.16 28.1913 244.16 28.1913 252.48C28.1913 275.2 85.6313 278.56 85.6313 312C85.6313 332.64 63.5513 344.8 39.8713 344.8C26.1113 344.8 4.99125 340.64 2.43125 319.2Z" fill="#F6F3E1"/>
<path d="M221.926 330.08V243.52C221.926 241.28 220.806 233.92 217.606 232H253.446C250.246 233.92 249.126 241.28 249.126 243.52V330.24C248.966 333.28 249.766 341.44 253.766 344C245.606 344 228.806 344 218.566 344C220.326 338.72 221.926 333.76 221.926 330.08Z" fill="#F6F3E1"/>
<path d="M297.991 324.64C297.991 332.8 301.991 339.04 310.791 339.04H314.311C325.991 339.04 334.951 323.04 337.991 306.24L338.151 344H263.431C269.671 339.68 270.471 330.08 270.471 324.8V250.88C270.471 245.6 269.671 233.6 263.431 231.84H338.151L337.991 267.84C336.711 248.8 329.831 236.8 318.151 236.8H310.791C301.991 236.8 297.991 243.04 297.991 251.2V281.92C311.591 281.6 325.991 282.08 325.991 262.24V304.16C320.711 287.68 311.591 285.92 297.991 285.6V324.64Z" fill="#F6F3E1"/>
<path d="M628.256 230.4C640.416 230.4 659.776 231.84 662.016 251.84C664.256 272.32 654.976 283.68 630.816 285.92V285.12C634.816 281.76 640.736 264 640.736 259.04C640.736 249.28 634.336 233.28 622.816 233.28C606.336 233.28 601.856 261.28 601.856 273.28C601.856 296 614.496 330.88 639.776 325.6C654.496 322.56 658.816 301.28 657.056 291.04L658.656 289.44C665.216 321.28 657.536 345.6 626.496 345.6C594.656 345.6 580.416 315.52 580.416 287.52C580.416 257.76 595.456 230.4 628.256 230.4Z" fill="#F6F3E1"/>
<path d="M490.431 319.2C488.191 300.32 498.431 294.72 509.951 294.88C505.311 302.56 506.271 315.2 509.151 322.72C511.551 329.12 518.431 339.68 527.711 339.68C538.431 339.68 546.111 332 546.111 322.72C546.111 297.76 491.071 295.84 491.071 263.2C491.071 244 510.111 231.2 532.671 231.2C549.471 231.2 571.551 238.24 571.551 254.56C571.551 261.6 565.471 271.36 551.231 276.16C554.111 264 554.111 258.24 552.671 252.48C549.951 241.12 543.231 236.16 533.311 236.16C523.871 236.16 516.191 244.16 516.191 252.48C516.191 275.2 573.631 278.56 573.631 312C573.631 332.64 551.551 344.8 527.871 344.8C514.111 344.8 492.991 340.64 490.431 319.2Z" fill="#F6F3E1"/>
<path d="M715.702 344C724.342 339.84 726.102 326.4 726.102 323.52C726.102 312.48 725.142 308 721.782 297.44H692.342C690.582 304.96 689.462 312.64 689.462 320.32C689.462 328 695.062 337.12 700.022 344C690.582 344 672.662 343.68 672.662 343.68L709.142 239.84C709.942 236.16 709.942 232.64 709.622 232C718.102 232 724.502 231.84 729.782 232C729.782 234.56 729.622 236.32 730.902 239.84L759.862 325.44C762.902 334.24 766.422 341.76 768.182 344.32C758.422 343.68 732.982 344 715.702 344ZM694.902 291.2L719.702 291.36L709.302 249.28L694.902 291.2Z" fill="#F6F3E1"/>
<path d="M784.581 250.88C784.581 245.6 783.781 236 777.541 231.84H825.701C817.221 234.88 812.101 235.84 812.101 250.88V321.44C812.101 331.36 816.101 339.04 824.901 339.04H828.421C840.101 339.04 849.381 326.08 852.581 308.64L852.261 344H777.541C783.781 338.08 784.581 328.48 784.581 323.2V250.88Z" fill="#F6F3E1"/>
<path d="M897.991 324.64C897.991 332.8 901.991 339.04 910.791 339.04H914.311C925.991 339.04 934.951 323.04 937.991 306.24L938.151 344H863.431C869.671 339.68 870.471 330.08 870.471 324.8V250.88C870.471 245.6 869.671 233.6 863.431 231.84H938.151L937.991 267.84C936.711 248.8 929.831 236.8 918.151 236.8H910.791C901.991 236.8 897.991 243.04 897.991 251.2V281.92C911.591 281.6 925.991 282.08 925.991 262.24V304.16C920.711 287.68 911.591 285.92 897.991 285.6V324.64Z" fill="#F6F3E1"/>
<path d="M454.566 309.44C458.406 326.88 447.846 342.56 433.766 347.04L429.766 343.52C435.526 343.04 438.086 332.32 437.926 326.4C433.126 338.08 424.486 340.96 417.126 342.08C390.726 346.08 369.766 331.36 369.126 307.04C368.486 292 376.966 277.76 392.646 270.4C388.166 264.16 384.006 256.8 383.846 248.8C383.366 235.84 393.766 222.08 411.206 222.56C423.846 222.88 430.086 227.04 430.406 238.72C430.726 247.2 426.246 255.52 419.526 262.24C430.726 275.04 448.166 282.08 453.446 304.32C458.086 292 434.086 265.6 423.366 263.36C443.046 239.36 483.046 277.76 454.566 309.44ZM414.086 252.32C416.006 246.56 417.286 244.16 418.886 238.4C420.646 232.32 418.566 226.72 413.286 226.72C407.206 226.72 406.726 235.04 406.726 236.96C406.886 244.96 412.326 248.32 414.086 252.32ZM437.126 322.08C433.446 298.72 408.486 289.6 394.246 272.16C388.806 276.32 388.006 282.56 388.006 288C388.326 306.4 416.326 348.16 437.126 322.08Z" fill="#F6F3E1"/>
<path d="M438.604 95.2398C448.429 78.6053 456.58 58.1799 474.349 50.5944C488.983 44.3466 482.312 24.9235 493.143 40.4999C464.023 18.5907 488.967 39.1363 489.701 40.4999C489.268 33.7204 512.077 44.3395 509.643 38C504.828 25.46 502.503 23.0326 489.701 18.9676C478.262 15.3358 465.439 17.5919 455.009 23.5291C444.579 29.4663 438.498 39.7901 432.394 50.1241C422.569 66.7586 414.417 87.184 396.649 94.7695C382.015 101.017 362.475 99.5764 351.643 84C350.733 82.6905 349.377 91.8633 348.643 90.5C349.076 97.2794 347.28 94.1604 349.713 100.5C354.528 113.04 368.494 122.331 381.297 126.396C392.736 130.028 405.558 127.772 415.988 121.835C426.418 115.897 432.5 105.574 438.604 95.2398Z" fill="#B9B173"/>
<path d="M568.287 51.9757C572.756 60.0712 577.559 69.4915 575.031 78.9731C573.217 81.5511 569.775 82.2986 567.064 83.6491C563.494 85.5925 559.547 82.151 557.695 79.3419C555.575 71.9796 552.935 64.6308 548.191 58.516C537.736 44.1324 517.945 37.5191 500.912 42.3999C483.095 47.1334 469.103 63.9507 468.161 82.4151C467.731 87.6623 469.512 92.9547 472.74 97.0727C474.119 98.9969 477.07 100.153 479.16 98.7022C482.024 97.3118 482.163 93.8289 482.503 91.0857C483.177 83.1762 488.712 76.2029 495.637 72.6706C503.129 69.3273 512.422 69.9556 519.155 74.781C527.629 80.3914 532.852 90.0245 534.302 99.9708C536.746 114.787 532.109 130.121 523.481 142.216C515.02 155.065 501.218 163.919 486.374 167.516C467.673 172.329 447.007 168.833 430.948 158.095C417.836 149.419 407.694 135.976 403.827 120.658C403.379 117.546 402.506 114.026 403.884 111.073C407.553 108.417 412.571 104.932 417.182 107.419C421.435 108.919 422.032 113.869 423.754 117.442C427.986 128.551 436.189 138.252 446.902 143.58C461.167 150.973 479.293 151.405 493.346 143.256C502.672 138.021 510.107 129.063 512.632 118.572C514.421 111.455 515.114 103.471 511.25 96.8727C509.932 94.7254 508.507 90.867 505.293 91.7786C503.744 92.8393 503.608 94.8387 503.408 96.5378C503.018 104.679 497.512 111.811 490.736 115.934C482.488 121.662 470.782 121.43 462.551 115.807C456.324 111.852 451.864 105.392 450.058 98.2745C444.59 80.9438 449.08 61.3981 460.022 47.1528C470.577 32.4052 487.633 22.5832 505.68 20.8198C530.222 17.8464 555.81 30.6725 568.287 51.9757Z" fill="#B9B173"/>
</svg>
